<svg width="170" height="33" viewBox="0 0 170 33" fill="none" xmlns="http://www.w3.org/2000/svg">
<path d="M5.83398 9.81055L6.01855 12.292C7.59082 10.3643 9.7168 9.40039 12.3965 9.40039C15.2539 9.40039 17.2158 10.5283 18.2822 12.7842C19.8408 10.5283 22.0625 9.40039 24.9473 9.40039C27.3535 9.40039 29.1445 10.1045 30.3203 11.5127C31.4961 12.9072 32.084 15.0127 32.084 17.8291V32H26.1367V17.8496C26.1367 16.5918 25.8906 15.6758 25.3984 15.1016C24.9062 14.5137 24.0381 14.2197 22.7939 14.2197C21.0166 14.2197 19.7861 15.0674 19.1025 16.7627L19.123 32H13.1963V17.8701C13.1963 16.585 12.9434 15.6553 12.4375 15.0811C11.9316 14.5068 11.0703 14.2197 9.85352 14.2197C8.17188 14.2197 6.95508 14.917 6.20312 16.3115V32H0.276367V9.81055H5.83398ZM35.7344 20.7002C35.7344 18.499 36.1582 16.5371 37.0059 14.8145C37.8535 13.0918 39.0703 11.7588 40.6562 10.8154C42.2559 9.87207 44.1084 9.40039 46.2139 9.40039C49.208 9.40039 51.6484 10.3164 53.5352 12.1484C55.4355 13.9805 56.4951 16.4688 56.7139 19.6133L56.7549 21.1309C56.7549 24.5352 55.8047 27.2695 53.9043 29.334C52.0039 31.3848 49.4541 32.4102 46.2549 32.4102C43.0557 32.4102 40.499 31.3848 38.585 29.334C36.6846 27.2832 35.7344 24.4941 35.7344 20.9668V20.7002ZM41.6611 21.1309C41.6611 23.2363 42.0576 24.8496 42.8506 25.9707C43.6436 27.0781 44.7783 27.6318 46.2549 27.6318C47.6904 27.6318 48.8115 27.085 49.6182 25.9912C50.4248 24.8838 50.8281 23.1201 50.8281 20.7002C50.8281 18.6357 50.4248 17.0361 49.6182 15.9014C48.8115 14.7666 47.6768 14.1992 46.2139 14.1992C44.7646 14.1992 43.6436 14.7666 42.8506 15.9014C42.0576 17.0225 41.6611 18.7656 41.6611 21.1309ZM68.3828 24.7607L72.5049 9.81055H78.6982L71.2129 32H65.5527L58.0674 9.81055H64.2607L68.3828 24.7607ZM87.5781 32H81.6309V9.81055H87.5781V32ZM81.2822 4.06836C81.2822 3.17969 81.5762 2.44824 82.1641 1.87402C82.7656 1.2998 83.5791 1.0127 84.6045 1.0127C85.6162 1.0127 86.4229 1.2998 87.0244 1.87402C87.626 2.44824 87.9268 3.17969 87.9268 4.06836C87.9268 4.9707 87.6191 5.70898 87.0039 6.2832C86.4023 6.85742 85.6025 7.14453 84.6045 7.14453C83.6064 7.14453 82.7998 6.85742 82.1846 6.2832C81.583 5.70898 81.2822 4.9707 81.2822 4.06836ZM102.692 32.4102C99.4385 32.4102 96.7861 31.4121 94.7354 29.416C92.6982 27.4199 91.6797 24.7607 91.6797 21.4385V20.8643C91.6797 18.6357 92.1104 16.6465 92.9717 14.8965C93.833 13.1328 95.0498 11.7793 96.6221 10.8359C98.208 9.87891 100.013 9.40039 102.036 9.40039C105.071 9.40039 107.457 10.3574 109.193 12.2715C110.943 14.1855 111.818 16.8994 111.818 20.4131V22.833H97.6885C97.8799 24.2822 98.4541 25.4443 99.4111 26.3193C100.382 27.1943 101.605 27.6318 103.082 27.6318C105.365 27.6318 107.149 26.8047 108.435 25.1504L111.347 28.4111C110.458 29.6689 109.255 30.6533 107.737 31.3643C106.22 32.0615 104.538 32.4102 102.692 32.4102ZM102.016 14.1992C100.84 14.1992 99.8828 14.5957 99.1445 15.3887C98.4199 16.1816 97.9551 17.3164 97.75 18.793H105.994V18.3213C105.967 17.0088 105.611 15.9971 104.928 15.2861C104.244 14.5615 103.273 14.1992 102.016 14.1992ZM124.738 20.7412C124.738 17.2822 125.511 14.5273 127.056 12.4766C128.614 10.4258 130.74 9.40039 133.434 9.40039C135.594 9.40039 137.378 10.207 138.786 11.8203V0.5H144.733V32H139.381L139.094 29.6416C137.617 31.4873 135.717 32.4102 133.393 32.4102C130.781 32.4102 128.683 31.3848 127.097 29.334C125.524 27.2695 124.738 24.4053 124.738 20.7412ZM130.665 21.1719C130.665 23.25 131.027 24.8428 131.752 25.9502C132.477 27.0576 133.529 27.6113 134.91 27.6113C136.742 27.6113 138.034 26.8389 138.786 25.2939V16.5371C138.048 14.9922 136.77 14.2197 134.951 14.2197C132.094 14.2197 130.665 16.5371 130.665 21.1719ZM169.322 21.1104C169.322 24.665 168.563 27.4404 167.046 29.4365C165.528 31.4189 163.409 32.4102 160.688 32.4102C158.282 32.4102 156.361 31.4873 154.926 29.6416L154.659 32H149.327V0.5H155.254V11.7998C156.621 10.2002 158.419 9.40039 160.647 9.40039C163.354 9.40039 165.474 10.3984 167.005 12.3945C168.55 14.377 169.322 17.1729 169.322 20.7822V21.1104ZM163.396 20.6797C163.396 18.4375 163.04 16.8037 162.329 15.7783C161.618 14.7393 160.559 14.2197 159.15 14.2197C157.264 14.2197 155.965 14.9922 155.254 16.5371V25.2939C155.979 26.8525 157.291 27.6318 159.191 27.6318C161.105 27.6318 162.363 26.6885 162.965 24.8018C163.252 23.8994 163.396 22.5254 163.396 20.6797Z" fill="black"/>
</svg>
